<svg width="38" height="37" viewBox="0 0 38 37" fill="none" xmlns="http://www.w3.org/2000/svg">
<rect width="38" height="37" rx="18.5" fill="white"/>
<path d="M23.3969 15.9155C21.7645 14.8361 19.5755 15.2014 18.3821 16.7523L17.6007 17.7678C16.5287 19.161 14.4365 19.1865 13.3308 17.82C12.1717 16.3876 9.95379 16.4979 8.94262 18.0383L7.03902 20.9381C7.01225 20.9789 6.98244 21.0176 6.94986 21.0539C6.16099 21.9331 7.32664 23.1936 8.2647 22.4757L10.6767 20.63C11.1547 20.2642 11.825 20.2889 12.2748 20.6887L16.5514 24.4904C18.0809 25.85 20.4988 24.7642 20.4988 22.7178C20.4988 20.3009 23.691 19.4325 24.9153 21.5164L26.9629 25.0013C28.1631 27.0442 31.1578 26.9182 32.1823 24.7818C32.8218 23.4484 32.3787 21.8477 31.1446 21.0329L25.3813 17.2277L23.3969 15.9155Z" fill="black"/>
<path d="M15.8294 10.5862C16.6224 10.1706 17.52 10.9267 17.2453 11.7788L16.6009 13.7777C16.5731 13.8637 16.5572 13.9532 16.5535 14.0436L16.4676 16.142C16.4309 17.0365 15.3274 17.4359 14.7268 16.7719L13.3179 15.2144C13.2572 15.1473 13.1877 15.0888 13.1113 15.0404L11.337 13.9167C10.5806 13.4377 10.7866 12.2824 11.6619 12.0942L13.7151 11.6529C13.8036 11.6339 13.889 11.6029 13.9691 11.561L15.8294 10.5862Z" fill="black"/>
</svg>
